<svg xmlns="http://www.w3.org/2000/svg" xmlns:xlink="http://www.w3.org/1999/xlink" version="1.1" x="0px" y="0px" viewBox="0 0 100 125" enable-background="new 0 0 100 100" xml:space="preserve"><g><g><path d="M100,86.02H0V13.98h100V86.02z M2.341,83.68h95.317V16.321H2.341V83.68z"/><g><path d="M9.95,20.733c0-1.486-1.234-2.697-2.757-2.697c-1.52,0-2.752,1.211-2.752,2.697c0,1.489,1.232,2.697,2.752,2.697     C8.716,23.43,9.95,22.223,9.95,20.733z"/><rect x="6.943" y="78.213" width="15.021" height="3.253"/><path d="M84.047,21.958c-4.699,0-8.511,3.727-8.511,8.327c0,4.095,3.024,7.492,7.009,8.188v25.729l-1.962,1.918l-1.06-1.035     l-9.117,8.919l1.729,1.688l1.459,1.431l0.002-0.002l1.061,1.038l9.119-8.919l-1.061-1.04l2.835-2.773V38.473     c3.979-0.695,7.007-4.093,7.007-8.188C92.557,25.686,88.744,21.958,84.047,21.958z M85.55,34.862v-4.575h-3.005v4.575     c-1.988-0.625-3.436-2.427-3.436-4.577c0-2.671,2.211-4.832,4.938-4.832c2.725,0,4.938,2.161,4.938,4.832     C88.982,32.435,87.535,34.238,85.55,34.862z"/><path d="M92.912,76.511c-1.52,0-2.758,1.208-2.758,2.697c0,1.487,1.238,2.696,2.758,2.696c1.521,0,2.757-1.209,2.757-2.696     C95.669,77.719,94.436,76.511,92.912,76.511z"/></g><g><g><path d="M37.846,19.464c-16.918,0-30.635,13.417-30.635,29.967c0,16.551,13.717,29.973,30.635,29.973      c16.919,0,30.634-13.422,30.634-29.973C68.48,32.881,54.768,19.464,37.846,19.464z M26.938,49.432      c0-5.895,4.882-10.673,10.908-10.673c6.024,0,10.909,4.779,10.909,10.673c0,5.896-4.884,10.673-10.909,10.673      C31.821,60.104,26.938,55.328,26.938,49.432z M42.961,62.338c3.458-1.102,6.265-3.622,7.688-6.863l0.451,0.207      c-1.477,3.357-4.38,5.973-7.958,7.121L42.961,62.338z M44.059,65.15c4.155-1.457,7.53-4.512,9.35-8.409l0.481,0.222      c-1.877,4.021-5.355,7.173-9.639,8.682L44.059,65.15z M45.16,67.961c4.852-1.805,8.8-5.393,11.01-9.951l0.512,0.235      c-2.271,4.69-6.328,8.384-11.318,10.241L45.16,67.961z M46.258,70.77c5.555-2.142,10.076-6.271,12.672-11.489l0.541,0.247      c-2.66,5.358-7.299,9.6-12.996,11.798L46.258,70.77z M47.591,74.176l-0.229-0.584c6.255-2.48,11.375-7.146,14.352-13.031      l0.569,0.262C59.238,66.854,53.999,71.636,47.591,74.176z"/></g><path d="M37.846,46.839c-1.464,0-2.65,1.161-2.65,2.592c0,1.43,1.186,2.594,2.65,2.594c1.46,0,2.652-1.162,2.652-2.594     S39.307,46.839,37.846,46.839z M37.846,50.945c-0.856,0-1.549-0.675-1.549-1.514c0-0.837,0.692-1.516,1.549-1.516     c0.857,0,1.551,0.679,1.551,1.516C39.397,50.271,38.703,50.945,37.846,50.945z"/></g></g></g><text x="0" y="115" fill="#000000" font-size="5px" font-weight="bold" font-family="'Helvetica Neue', Helvetica, Arial-Unicode, Arial, Sans-serif">Created by Juan Pablo Bravo</text><text x="0" y="120" fill="#000000" font-size="5px" font-weight="bold" font-family="'Helvetica Neue', Helvetica, Arial-Unicode, Arial, Sans-serif">from the Noun Project</text></svg>